<svg xmlns="http://www.w3.org/2000/svg" xmlns:xlink="http://www.w3.org/1999/xlink" width="123" height="123" viewBox="0 0 123 123">
  <defs>
    <filter id="Path_7" x="0" y="0" width="123" height="123" filterUnits="userSpaceOnUse">
      <feOffset dy="5" input="SourceAlpha"/>
      <feGaussianBlur stdDeviation="7.5" result="blur"/>
      <feFlood flood-color="#754ef9" flood-opacity="0.161"/>
      <feComposite operator="in" in2="blur"/>
      <feComposite in="SourceGraphic"/>
    </filter>
  </defs>
  <g id="button" transform="translate(22.5 17.5)">
    <g transform="matrix(1, 0, 0, 1, -22.5, -17.5)" filter="url(#Path_7)">
      <path id="Path_7-2" data-name="Path 7" d="M39,0A39,39,0,1,1,0,39,39,39,0,0,1,39,0Z" transform="translate(22.5 17.5)" fill="#fff"/>
    </g>
    <path id="play-button" d="M21.262,10.4,6.309.091A.516.516,0,0,0,5.5.515V21.14a.516.516,0,0,0,.809.424L21.262,11.252a.516.516,0,0,0,0-.849Z" transform="translate(29.008 28.172)" fill="#754ef9"/>
  </g>
</svg>
